<svg width="30" height="16" viewBox="0 0 30 16" fill="none" xmlns="http://www.w3.org/2000/svg">
<path d="M4 16C2.88889 16 1.94444 15.6111 1.16667 14.8333C0.388889 14.0556 0 13.1111 0 12V4C0 2.88889 0.388889 1.94444 1.16667 1.16667C1.94444 0.388889 2.88889 0 4 0H22.7333L20.6 2.66667H4C3.62222 2.66667 3.30556 2.79444 3.05 3.05C2.79444 3.30556 2.66667 3.62222 2.66667 4V12C2.66667 12.3778 2.79444 12.6944 3.05 12.95C3.30556 13.2056 3.62222 13.3333 4 13.3333H19.7667L19.2667 16H4ZM22.2333 14.6667L23.1667 9.33333H18.6667L25.0667 1.33333H25.7667L24.8333 6.66667H29.3333L22.9333 14.6667H22.2333ZM4 12V4H19.5333L13.1333 12H4Z" fill="#D19E2F"/>
</svg>
