<svg width="30" height="22" viewBox="0 0 30 22" fill="none" xmlns="http://www.w3.org/2000/svg">
<path d="M8 21.3333C6.88889 21.3333 5.94444 20.9444 5.16667 20.1667C4.38889 19.3889 4 18.4444 4 17.3333H0.666667L1.26667 14.6667H5.03333C5.41111 14.2444 5.85556 13.9167 6.36667 13.6833C6.87778 13.45 7.42222 13.3333 8 13.3333C8.57778 13.3333 9.12222 13.45 9.63333 13.6833C10.1444 13.9167 10.5889 14.2444 10.9667 14.6667H16.5333L19.3333 2.66667H7.4L7.96667 0H22.6667L21.4333 5.33333H25.3333L29.3333 10.6667L28 17.3333H25.3333C25.3333 18.4444 24.9444 19.3889 24.1667 20.1667C23.3889 20.9444 22.4444 21.3333 21.3333 21.3333C20.2222 21.3333 19.2778 20.9444 18.5 20.1667C17.7222 19.3889 17.3333 18.4444 17.3333 17.3333H12C12 18.4444 11.6111 19.3889 10.8333 20.1667C10.0556 20.9444 9.11111 21.3333 8 21.3333ZM19.9 12H26.3333L26.4667 11.3L24 8H20.8333L19.9 12ZM19.3333 2.66667L16.5333 14.6667L16.6 14.4333L19.3333 2.66667ZM3.33333 12V8H0L4.66667 1.33333V5.33333H8L3.33333 12ZM8 18.6667C8.37778 18.6667 8.69444 18.5389 8.95 18.2833C9.20556 18.0278 9.33333 17.7111 9.33333 17.3333C9.33333 16.9556 9.20556 16.6389 8.95 16.3833C8.69444 16.1278 8.37778 16 8 16C7.62222 16 7.30556 16.1278 7.05 16.3833C6.79445 16.6389 6.66667 16.9556 6.66667 17.3333C6.66667 17.7111 6.79445 18.0278 7.05 18.2833C7.30556 18.5389 7.62222 18.6667 8 18.6667ZM21.3333 18.6667C21.7111 18.6667 22.0278 18.5389 22.2833 18.2833C22.5389 18.0278 22.6667 17.7111 22.6667 17.3333C22.6667 16.9556 22.5389 16.6389 22.2833 16.3833C22.0278 16.1278 21.7111 16 21.3333 16C20.9556 16 20.6389 16.1278 20.3833 16.3833C20.1278 16.6389 20 16.9556 20 17.3333C20 17.7111 20.1278 18.0278 20.3833 18.2833C20.6389 18.5389 20.9556 18.6667 21.3333 18.6667Z" fill="#CA8A04"/>
</svg>
