<svg width="32" height="32" viewBox="0 0 32 32" fill="none" xmlns="http://www.w3.org/2000/svg">
<path d="M0.493081 25.9494L11.987 14.505C11.7098 13.8643 11.4962 13.2132 11.3461 12.5517C11.196 11.8898 11.121 11.1877 11.121 10.4453C11.121 7.54396 12.1359 5.0778 14.1657 3.04686C16.1958 1.01562 18.6607 0 21.5605 0C22.4985 0 23.3953 0.11944 24.2507 0.358321C25.1061 0.596899 25.9203 0.936297 26.6931 1.37651L20.2056 7.90213L24.1023 11.801L30.5893 5.34529C31.0293 6.11825 31.3744 6.92738 31.6246 7.7727C31.8749 8.61802 32 9.5089 32 10.4453C32 13.347 30.9851 15.8133 28.9553 17.8443C26.9252 19.8752 24.4602 20.8907 21.5605 20.8907C20.7946 20.8907 20.0812 20.8185 19.4204 20.6741C18.7592 20.5296 18.1201 20.313 17.5031 20.0242L6.06506 31.525C5.74461 31.8417 5.35729 32 4.9031 32C4.4489 32 4.06476 31.8429 3.75066 31.5286L0.454047 28.2301C0.140256 27.9159 -0.0108897 27.5364 0.000608884 27.0916C0.0124101 26.6468 0.176567 26.2661 0.493081 25.9494ZM3.21598 27.1093L4.87813 28.7719L16.9694 16.6744C17.5979 17.1843 18.313 17.5603 19.1149 17.8025C19.9168 18.0447 20.732 18.1658 21.5605 18.1658C23.5739 18.1658 25.3558 17.4462 26.906 16.0068C28.4562 14.5675 29.2161 12.7462 29.1859 10.543L25.2511 14.4804C24.9228 14.8086 24.5398 14.9727 24.1023 14.9727C23.6647 14.9727 23.2818 14.8086 22.9535 14.4804L17.5277 9.05157C17.1996 8.72308 17.0356 8.33993 17.0356 7.90213C17.0356 7.46434 17.1996 7.08119 17.5277 6.75269L21.4629 2.8157C19.1329 2.82024 17.2806 3.60395 15.9059 5.16681C14.5315 6.72968 13.8443 8.48919 13.8443 10.4453C13.8443 11.2404 13.9625 12.0355 14.1988 12.8305C14.4348 13.6253 14.8043 14.3522 15.3072 15.0113L3.21598 27.1093Z" fill="#CF9822"/>
</svg>
