<svg width="28" height="32" viewBox="0 0 28 32" fill="none" xmlns="http://www.w3.org/2000/svg">
<path d="M8.67601 3.18C6.77109 3.70464 4.8792 4.27547 3.00201 4.892C2.83047 4.94732 2.67797 5.04982 2.56195 5.18776C2.44594 5.3257 2.37111 5.49351 2.34601 5.672C1.23801 13.986 3.79801 20.052 6.85201 24.048C8.14447 25.7573 9.68634 27.2627 11.426 28.514C12.118 29.002 12.73 29.354 13.212 29.58C13.452 29.6933 13.6473 29.772 13.798 29.816C13.8644 29.8362 13.9319 29.8528 14 29.866C14.0675 29.8528 14.1342 29.8361 14.2 29.816C14.352 29.7707 14.548 29.692 14.788 29.58C15.268 29.354 15.882 29 16.574 28.514C18.3137 27.2627 19.8555 25.7573 21.148 24.048C24.202 20.054 26.762 13.986 25.654 5.672C25.6289 5.49351 25.5541 5.3257 25.4381 5.18776C25.3221 5.04982 25.1696 4.94732 24.998 4.892C23.696 4.466 21.498 3.772 19.324 3.182C17.104 2.58 15.062 2.134 14 2.134C12.94 2.134 10.896 2.578 8.67601 3.18ZM8.14401 1.12C10.314 0.53 12.62 0 14 0C15.38 0 17.686 0.53 19.856 1.12C22.076 1.72 24.314 2.43 25.63 2.86C26.1802 3.0417 26.668 3.37493 27.0374 3.8214C27.4067 4.26787 27.6426 4.80948 27.718 5.384C28.91 14.338 26.144 20.974 22.788 25.364C21.3643 27.2415 19.6675 28.8951 17.754 30.27C17.0931 30.7469 16.3917 31.1651 15.658 31.52C15.098 31.784 14.496 32 14 32C13.504 32 12.904 31.784 12.342 31.52C11.6083 31.1651 10.907 30.7469 10.246 30.27C8.33251 28.8951 6.6357 27.2415 5.21201 25.364C1.85601 20.974 -0.909989 14.338 0.282011 5.384C0.357385 4.80948 0.593297 4.26787 0.962645 3.8214C1.33199 3.37493 1.81979 3.0417 2.37001 2.86C4.28052 2.23402 6.20574 1.65385 8.14401 1.12Z" fill="#CF9822"/>
</svg>
