<svg width="160" height="64" viewBox="0 0 160 64" fill="none" xmlns="http://www.w3.org/2000/svg">
<path d="M21.7599 63.6934C21.7891 63.5463 22.6243 61.6881 23.6138 59.5626L25.4146 55.697L26.1777 55.7508L26.9409 55.8047L28.8531 59.7408C29.9044 61.9056 30.7447 63.7224 30.7207 63.7804C30.6967 63.8384 30.3057 63.884 29.8512 63.884C29.0555 63.884 29.0092 63.8508 28.6216 63.0036L28.2186 62.1231H26.1297H24.0409L23.5984 63.0036C23.1988 63.8011 23.089 63.8881 22.4322 63.9213C21.916 63.9482 21.7222 63.8819 21.7599 63.6934ZM27.5068 60.5176C27.4674 60.4327 27.145 59.7263 26.79 58.9515L26.1451 57.5386L25.857 58.1228C25.6992 58.4419 25.358 59.1483 25.099 59.689L24.6291 60.673H26.104C26.9152 60.673 27.5463 60.6026 27.5068 60.5176ZM36.1161 63.7887C34.2141 63.71 33.3584 63.594 33.1577 63.393C32.9142 63.1486 32.8747 62.5934 32.8747 59.4052V55.7011H33.6465H34.4182V59.0157V62.3303H36.7335H39.0487V59.0157V55.7011H39.8204H40.5922V59.3264C40.5922 62.6762 40.5665 62.9828 40.2492 63.3661C40.0605 63.594 39.7587 63.7804 39.5769 63.7804C39.3968 63.7804 39.1447 63.8073 39.0195 63.8405C38.8943 63.8736 37.5875 63.8508 36.1161 63.7887ZM45.7371 60.5425V57.1512H44.1936H42.6502V56.4262V55.7011H46.5946H50.5391V56.4262V57.1512H48.999H47.4607L47.4127 60.499L47.3664 63.8467L46.5518 63.8902L45.7371 63.9358V60.5425ZM53.9982 63.7949C52.2575 63.6313 52.2541 63.623 52.2541 59.7408C52.2541 57.3625 52.3124 56.5111 52.4976 56.2066C52.7257 55.8316 52.9744 55.8047 56.286 55.8047C60.7964 55.8047 60.486 55.496 60.486 59.9666C60.486 63.0429 60.4723 63.1589 60.1001 63.4407C59.6577 63.7742 56.0356 63.9834 53.9982 63.7949ZM58.9425 59.7408V57.1512H56.37H53.7976V59.7408V62.3303H56.37H58.9425V59.7408ZM69.2324 59.8298V55.7011H72.7482H76.2639V56.42V57.1409L73.5765 57.1968L70.8891 57.2548L70.8308 58.1353L70.7725 59.0157H72.4892H74.2059V59.6289V60.2442L72.5338 60.3022L70.8617 60.3622V61.3463V62.3303H73.5628H76.2639V63.1651V64L72.7482 63.9793L69.2324 63.9586V59.8298ZM79.1794 59.8174V55.7011H79.9511H80.7228V59.0157V62.3303H83.3056H85.8884L85.8352 63.0491L85.782 63.768L82.4807 63.8509L79.1794 63.9337V59.8174ZM87.8469 63.8239C87.7954 63.7618 87.7543 61.9097 87.7543 59.7055V55.7011H91.3129H94.8715V56.4262V57.1512H92.1704H89.4693V58.0835V59.0157H91.0985H92.7277V59.6372V60.2587H91.0985H89.4693V61.2945V62.3303H92.1875H94.9041L94.8646 63.1071L94.8252 63.884L91.3832 63.9089C89.4881 63.9234 87.8983 63.884 87.8469 63.8239ZM99.2447 60.5632V57.1512H97.7869H96.3292V56.4262V55.7011H100.102H103.875V56.4262V57.1512H102.421H100.968L100.92 60.5176L100.874 63.884L100.059 63.9296L99.2447 63.9751V60.5632ZM105.933 59.8216V55.7011H109.277C113.376 55.7011 113.308 55.6597 113.308 58.1415C113.308 60.2856 113.091 60.6709 111.882 60.6751L110.992 60.6792L112.018 61.7627C112.582 62.3593 113.272 63.0926 113.551 63.3909L114.06 63.9337L112.954 63.9399L111.85 63.9461L110.392 62.3137C109.121 60.8905 108.854 60.6813 108.298 60.6771L107.662 60.673L107.612 62.2702L107.562 63.8653L106.748 63.9047L105.933 63.9441V59.8216ZM111.764 58.2906V57.1512H109.723H107.681L107.622 58.2036C107.59 58.7837 107.595 59.2954 107.634 59.343C107.674 59.3907 108.619 59.43 109.735 59.43H111.764V58.2906ZM116.566 59.8008V55.7011H117.338H118.11V59.8319V63.9606L117.338 63.9296L116.566 63.9006V59.8008ZM124.275 63.826C122.448 63.7804 121.922 63.6996 121.677 63.4303C121.404 63.1341 121.368 62.7073 121.368 59.8133C121.368 55.4359 121.136 55.7011 124.947 55.7011C127.612 55.7011 127.875 55.7343 128.291 56.1299C128.669 56.4904 128.742 56.7245 128.742 57.5801V58.6014H127.971C127.202 58.6014 127.199 58.5972 127.199 57.8763V57.1512H125.055H122.911V59.7408V62.3303H125.055H127.199V61.6052C127.199 60.8843 127.202 60.8801 127.971 60.8801H128.742V61.8704C128.742 62.4152 128.628 63.0574 128.487 63.2998C128.18 63.8301 127.545 63.9088 124.275 63.826ZM130.457 63.7991C130.457 63.7079 131.294 61.8725 132.316 59.7201L134.177 55.8047L134.932 55.7488L135.688 55.6928L137.575 59.6475C138.612 61.8227 139.48 63.6685 139.504 63.7473C139.53 63.826 139.144 63.8881 138.65 63.884C137.77 63.8778 137.741 63.8571 137.35 62.9994L136.949 62.1231H134.822H132.694L132.344 62.9518C132.152 63.4075 131.937 63.7908 131.869 63.8011C131.082 63.9337 130.457 63.9316 130.457 63.7991ZM136.014 59.9997C135.856 59.6289 135.537 58.9266 135.302 58.4356C134.817 57.4247 134.891 57.3688 133.905 59.4818L133.347 60.673H134.822H136.297L136.014 59.9997ZM90.1844 54.7129C90.2153 54.6239 90.5497 54.021 90.927 53.3726C91.5513 52.3016 91.6713 52.1939 92.2561 52.1876C92.6677 52.1814 92.8941 52.2726 92.8838 52.4383C92.8598 52.8589 90.8755 54.8725 90.4863 54.8725C90.289 54.8725 90.1518 54.8 90.1844 54.7129ZM32.1219 47.2116C28.7331 46.4224 31.6211 35.9006 36.6717 30.6366C37.3834 29.895 38.5719 28.8716 39.3094 28.3641C40.4258 27.5955 40.8374 27.4236 41.7481 27.3552C42.7874 27.2744 42.8937 27.3117 43.7838 28.0513C46.0698 29.953 47.3801 32.6565 47.8088 36.3626C48.1004 38.8879 47.5773 42.6582 46.5706 45.2664C45.8932 47.0252 45.485 47.2386 42.9571 47.1619C40.5973 47.0915 40.5356 46.9796 41.7584 44.9764C43.2796 42.4821 43.8781 40.5866 43.2367 40.2904C42.2729 39.8429 38.4227 40.5038 36.9907 41.3614C36.0869 41.9021 36.0457 41.9622 35.9943 42.8177C35.9429 43.6733 36.3544 45.6455 36.6683 46.0578C36.9272 46.3954 36.8346 46.9755 36.4882 47.1992C36.1143 47.4416 33.1423 47.4499 32.1219 47.2116ZM43.8507 36.3232C43.8507 36.1803 43.6929 35.4469 43.5008 34.6949C42.6467 31.3534 40.8614 31.0033 38.8 33.7751C38.1655 34.6266 37.1639 36.5345 37.1622 36.895C37.1622 36.9261 38.6662 36.8701 40.5064 36.7666C42.9829 36.6298 43.8507 36.5138 43.8507 36.3232ZM68.6373 47.2614C68.1674 47.2158 67.6752 47.0728 67.5415 46.9403C66.9601 46.3561 67.8073 41.2827 69.7486 33.742C70.7536 29.8349 71.383 28.0078 71.8204 27.724C72.2457 27.4505 83.8098 27.4609 83.8098 27.7364C83.8098 27.9808 82.088 30.8334 81.7107 31.2105C81.5032 31.4176 81.1602 31.3824 79.9305 31.0199C78.0097 30.4543 75.7219 30.3943 74.9605 30.8894C74.6672 31.08 74.3002 31.4694 74.1442 31.7574C73.7617 32.4638 73.4359 34.3448 73.6502 34.6038C73.7566 34.7322 74.47 34.6514 75.6482 34.3759C77.972 33.8352 79.8293 33.8021 79.9871 34.2972C80.102 34.6618 79.2479 36.7893 78.5774 37.8044C78.2138 38.3555 78.1589 38.37 76.2484 38.4011C75.1337 38.4197 74.0498 38.5481 73.7308 38.6994C72.5938 39.2359 71.7552 42.2066 72.4034 43.3999C72.6967 43.9426 72.7259 43.9488 74.0978 43.8245C74.8644 43.7541 76.341 43.4496 77.3786 43.1492C80.9869 42.103 80.8755 42.1237 81.1482 42.4531C81.2956 42.6334 81.4757 43.5801 81.5958 44.8086C81.7827 46.7165 81.7741 46.8822 81.4843 47.1391C81.2356 47.3566 79.9631 47.4064 75.3309 47.3774C72.1188 47.3567 69.1055 47.3049 68.6373 47.2614ZM86.5109 47.2634C86.1353 47.2158 85.8043 47.0376 85.7152 46.8325C85.4408 46.2028 85.9107 42.6914 87.329 34.7799C88.1367 30.2741 88.6083 28.3889 89.0645 27.8379C89.459 27.3614 98.7113 27.3842 100.128 27.8628C101.201 28.2274 102.347 29.2549 102.766 30.2306C103.522 31.9998 102.38 34.3821 99.7626 36.491C97.7012 38.1525 97.7629 38.0385 98.4472 38.9065C99.327 40.0231 100.209 41.6887 100.618 43.0166C101.044 44.386 101.274 46.8698 100.994 47.0791C100.69 47.3049 96.6225 47.454 96.072 47.2572C95.566 47.0791 95.5558 47.0459 95.4443 45.3285C95.2573 42.4428 94.2163 39.9568 93.1959 39.9568C92.7775 39.9568 91.3986 40.9471 90.9922 41.5416C90.7298 41.9228 90.6852 43.9923 90.8979 45.8837C91.035 47.1018 91.0248 47.1557 90.6406 47.28C90.2239 47.4146 87.6239 47.4043 86.5109 47.2634ZM92.9147 36.0498C95.1836 35.1072 97.8144 33.0708 98.1197 32.0226C98.2569 31.5502 98.2191 31.3762 97.9018 30.993C97.5554 30.5724 97.3548 30.531 95.6809 30.531C94.146 30.531 93.7482 30.5994 93.2748 30.9453C92.4928 31.515 91.6559 33.6011 91.5598 35.217C91.4741 36.6257 91.4964 36.6402 92.9147 36.0498ZM116.796 47.222C116.403 47.1433 115.961 46.9589 115.811 46.8118C115.17 46.1675 114.997 43.3211 115.467 41.1252C116.122 38.053 118.13 34.1273 120.363 31.5544C122.387 29.2217 125.1 27.32 126.403 27.32C127.875 27.32 130.557 30.0877 131.478 32.5529C132.148 34.3511 132.344 35.6686 132.344 38.3803C132.344 41.8358 131.55 45.2187 130.433 46.5094C129.943 47.0791 129.842 47.106 128.034 47.1744C125.052 47.2862 124.796 47.048 125.945 45.2312C126.714 44.0151 127.885 41.3262 127.885 40.7793C127.885 40.2158 127.271 40.0832 125.414 40.2407C123.824 40.3753 121.735 40.9595 120.835 41.523C120.557 41.697 120.294 42.0699 120.228 42.3868C120.094 43.0373 120.38 44.8831 120.761 45.8029C121.109 46.644 121.094 46.9403 120.694 47.1992C120.332 47.4333 117.938 47.4478 116.796 47.222ZM125.458 36.7251L128.264 36.5822L128.154 35.7535C127.883 33.7109 126.815 31.8775 125.894 31.8775C124.784 31.8775 123.368 33.1764 122.227 35.2377C121.366 36.7935 121.341 37.1436 122.097 36.9861C122.404 36.9219 123.916 36.8038 125.458 36.7251ZM137.317 47.1909C136.17 46.9237 134.419 45.7636 133.831 44.879C133.445 44.2989 133.297 43.8308 133.241 43.0125C133.167 41.9456 133.189 41.8834 134.145 40.4085C135.27 38.6704 135.614 38.5668 135.805 39.9133C135.98 41.1563 136.477 41.8938 137.527 42.4656C138.305 42.8902 138.698 42.9607 140.319 42.9607C142.447 42.9607 143.584 42.5816 144.176 41.6742C145.232 40.0501 143.932 38.7781 139.238 36.837C137.794 36.2404 136.426 35.5754 136.197 35.3579C135.045 34.262 135.398 31.4135 136.885 29.837C138.425 28.2046 140.488 27.4774 143.663 27.4464C146.162 27.4236 147.765 27.898 148.851 28.9856C149.772 29.9074 149.712 30.3984 148.535 31.5564C148.007 32.0743 147.462 32.499 147.323 32.499C147.182 32.499 146.592 32.093 146.009 31.5958C144.738 30.5144 144.069 30.2182 142.908 30.2244C141.824 30.2306 140.746 30.8024 140.259 31.6269C139.389 33.1019 139.981 33.9243 142.747 35.0844C146.475 36.6464 147.99 37.8086 148.722 39.6772C149.291 41.1252 148.792 43.0912 147.439 44.734C145.891 46.6109 143.622 47.4312 140.089 47.3919C138.989 47.3794 137.741 47.2883 137.317 47.1909ZM13.0667 47.0169C12.6276 46.8118 12.5041 45.863 12.6859 44.1001C13.0341 40.7275 15.0715 29.9364 15.6271 28.5195C15.8209 28.0243 16.1056 27.6867 16.4503 27.5417C17.1312 27.2537 24.3633 27.2516 25.821 27.5375C28.2837 28.0202 29.4002 29.5304 28.7708 31.5295C28.5084 32.3602 27.5892 33.4872 26.2515 34.6162L24.9944 35.6769L26.3235 37.3508C27.7538 39.151 28.2477 40.1619 28.3763 41.5416C28.6284 44.2451 27.3542 45.7698 23.9722 46.8139C22.8712 47.1557 22.0806 47.2054 18.0555 47.193C15.5002 47.1847 13.2553 47.106 13.0667 47.0169ZM20.9316 44.1891C22.187 43.7997 23.3394 43.0311 23.7219 42.3288C24.2861 41.2889 23.9208 39.4721 22.8352 37.9122C22.5865 37.5558 22.2641 37.2637 22.1201 37.2637C21.8525 37.2637 18.2939 38.7988 17.7589 39.1427C17.4124 39.3685 17.0969 40.9844 17.0969 42.5422C17.0969 43.4993 17.1603 43.7168 17.5479 44.0856C18.1104 44.618 19.4121 44.6573 20.9316 44.1891ZM18.8393 36.0456C22.7769 34.4091 25.0681 32.3954 24.485 31.082C24.2329 30.5103 23.7287 30.3363 22.3996 30.3673C20.1135 30.4191 19.0108 31.0945 18.3437 32.8553C17.9732 33.8331 17.5908 36.4351 17.8172 36.4351C17.8635 36.4351 18.3231 36.259 18.8393 36.0456ZM53.2402 46.9858C52.736 46.6274 52.9041 44.4067 53.7753 39.9568C54.1148 38.2208 55.5417 32.1179 55.7732 31.4114C55.9687 30.8148 55.4971 30.9598 52.6845 32.3644C51.2354 33.0894 49.9577 33.6136 49.848 33.5307C49.4192 33.2117 50.6025 29.5366 51.4223 28.6396C52.3278 27.6494 54.854 27.2226 58.8345 27.3863C61.9592 27.5147 63.6725 27.8607 64.945 28.621C65.5778 28.998 65.7236 29.1927 65.7596 29.7023C65.8128 30.5041 64.6843 32.5736 64.1424 32.6668C63.9348 32.702 63.2283 32.3954 62.5714 31.9832C60.8273 30.8935 60.5203 30.9163 59.9355 32.1883C59.2632 33.6508 58.4863 36.6671 58.2445 38.7574C58.0799 40.1661 58.085 41.0838 58.2617 43.1968C58.3834 44.6615 58.4915 46.1406 58.4983 46.4824L58.5138 47.1039L56.027 47.1516C54.547 47.1806 53.4186 47.1143 53.2402 46.9858ZM105.973 47.0646C105.271 46.8947 105.021 46.1365 105.153 44.5662C105.429 41.2495 107.442 30.5186 108.104 28.8323C108.528 27.753 109.07 27.5272 111.231 27.5272C112.268 27.5272 113.158 27.6121 113.212 27.7157C113.265 27.8193 113.165 28.3082 112.992 28.8033C112.066 31.428 110.579 40.4395 110.416 44.4108L110.306 47.1039L108.334 47.1308C107.249 47.1453 106.187 47.1143 105.973 47.0646ZM148.653 35.969C149.194 34.6742 152.744 26.9285 153.205 26.0377C153.565 25.3416 153.574 25.2629 153.306 25.1697C153.143 25.1137 152.445 24.8693 151.756 24.629L150.504 24.1877L151.463 22.0187C151.989 20.8255 152.768 19.1413 153.193 18.2753C153.617 17.4073 153.942 16.6781 153.915 16.6512C153.889 16.6263 153.114 16.3031 152.195 15.9365C151.276 15.5698 150.523 15.2052 150.523 15.1265C150.523 14.8054 159.758 0.627231 159.983 0.606514C160.044 0.600299 159.936 0.991837 159.743 1.4766C159.099 3.0821 155.333 13.3117 155.373 13.3469C155.393 13.3656 156.144 13.6908 157.04 14.0658C157.935 14.4428 158.726 14.8074 158.794 14.8799C158.864 14.9504 158.432 15.8909 157.835 16.9681C155.711 20.811 154.966 22.3543 155.193 22.4434C155.313 22.4911 155.98 22.7189 156.676 22.9489C157.371 23.1788 157.969 23.4026 158.005 23.4461C158.106 23.5683 157.125 25.1469 155.534 27.4236C154.026 29.5781 148.494 36.8494 148.362 36.8494C148.321 36.8494 148.451 36.4537 148.653 35.969ZM0.0327652 36.1244C0.461512 35.3309 5.26347 25.6399 5.26347 25.5674C5.26347 25.5384 4.51059 25.2504 3.59136 24.9314C2.67213 24.6103 1.86094 24.2892 1.78891 24.2167C1.65343 24.0779 3.7217 20.2226 5.04738 18.1407C5.46927 17.4777 5.78654 16.9122 5.75396 16.8811C5.71966 16.8521 4.8433 16.473 3.80573 16.04C2.76817 15.6071 1.81635 15.1865 1.69116 15.1058C1.53509 15.0042 3.2415 12.7607 7.14481 7.93382C10.2695 4.06819 12.9054 0.873758 13.0032 0.832326C13.101 0.790894 12.9929 1.11821 12.7631 1.55739C11.4752 4.02883 7.24771 13.2144 7.34546 13.3304C7.37976 13.3697 8.3333 13.7903 9.46519 14.2605C10.5954 14.7308 11.5832 15.1907 11.6569 15.2798C11.7307 15.3688 10.7291 16.9288 9.42746 18.7435C8.1275 20.5603 6.96302 22.199 6.84126 22.3854C6.6406 22.692 6.82239 22.8039 8.59912 23.4792C9.68813 23.8935 10.5799 24.2581 10.5799 24.2913C10.5799 24.3224 8.90096 26.2593 6.84983 28.5961C4.79871 30.9329 2.34971 33.7234 1.40818 34.7964C0.466657 35.8675 -0.152453 36.4662 0.0327652 36.1244ZM13.4268 24.5647C12.5487 24.2105 12.3584 21.6334 13.1541 20.8545C13.5177 20.5002 16.4417 20.4837 81.179 20.4837H148.823L149.245 20.9912C149.588 21.4076 149.665 21.708 149.665 22.6257C149.665 23.3964 149.571 23.8894 149.365 24.1836L149.065 24.6145L81.4517 24.6725C44.264 24.7035 13.6532 24.6559 13.4268 24.5647ZM16.0679 16.444C16.0679 15.5801 16.1502 15.2052 16.4109 14.8903C16.7402 14.4926 16.982 14.476 22.3756 14.476C28.9954 14.476 28.7588 14.4055 28.7588 16.3529V17.5834H22.4133H16.0679V16.444ZM135.431 16.5704C135.431 15.9137 135.537 15.3999 135.731 15.112C136.029 14.6686 136.077 14.6666 141.545 14.7266C147.918 14.7971 147.779 14.7556 147.779 16.5787V17.5834H141.605H135.431V16.5704ZM34.4182 16.1084C33.144 15.8619 31.688 14.94 31.2078 14.0782C30.5098 12.829 30.7739 11.0557 31.8389 9.82106C32.3568 9.22443 32.7032 9.26173 32.7032 9.91428C32.7032 10.5378 33.5642 11.5964 34.4971 12.1206C35.5604 12.7193 37.8139 12.8063 38.8395 12.2904C39.6232 11.8947 40.4207 10.9998 40.4207 10.5171C40.4207 9.74441 39.0967 8.74382 36.9135 7.86545C35.7525 7.39934 34.7012 7.01817 34.5777 7.01817C34.0306 7.01817 32.9005 6.14187 32.7015 5.56389C32.007 3.53785 34.0238 1.0747 36.9444 0.382783C38.3507 0.0492528 41.6092 0.225338 42.681 0.691451C43.4991 1.0457 44.3651 1.84741 44.3651 2.24724C44.3651 2.59941 42.976 4.32507 42.693 4.32507C42.5524 4.32507 41.9762 3.95425 41.4154 3.50263C40.4172 2.69678 39.4792 2.25138 38.7914 2.25967C38.3095 2.26381 37.0902 2.96194 36.6631 3.47778C35.7628 4.56537 36.3493 5.14542 39.6386 6.41532C42.3603 7.46563 42.9554 7.81366 43.65 8.77075C44.2845 9.6429 44.4406 10.2623 44.3154 11.3955C43.9364 14.8095 39.2408 17.0448 34.4182 16.1084ZM50.9215 16.0193C50.4242 15.8577 49.8068 15.5926 49.5495 15.4289C48.8704 15.0001 48.0249 13.869 47.7179 12.9803C46.9222 10.6787 48.1913 2.4254 49.6027 0.720457C49.8239 0.453219 50.275 0.388997 51.9231 0.388997C53.0481 0.388997 53.9691 0.449073 53.9691 0.523651C53.9691 0.598229 53.6998 1.2425 53.3688 1.95514C52.6331 3.54407 51.5715 7.31233 51.4463 8.77696C51.1548 12.1868 53.5455 14.0658 56.166 12.4893C58.3028 11.2028 59.2992 8.25906 59.3473 3.0821L59.3713 0.492578L60.6061 0.432499L61.8391 0.370354L61.9592 1.13685C62.3416 3.59793 61.599 8.81633 60.5203 11.2608C59.9321 12.5908 58.2239 14.6562 57.2258 15.2425C55.4062 16.3135 52.8114 16.6346 50.9215 16.0193ZM63.916 16.1374C63.2025 16.038 63.1408 15.982 63.0928 15.3916C63.0053 14.3082 64.2847 12.5742 68.2497 8.402C70.2528 6.2931 72.1959 4.18834 72.5681 3.72222L73.2472 2.87494H72.6967C72.3949 2.87494 71.4722 3.01166 70.6473 3.17946C69.8224 3.34519 68.8466 3.50885 68.4813 3.542L67.8159 3.6L67.418 2.35703C66.7234 0.185979 66.1146 0.388997 73.3484 0.388997C77.665 0.388997 79.6938 0.45943 79.6938 0.606514C79.6938 1.5346 78.8655 2.48754 74.9296 6.07144C72.1016 8.6506 69.9613 11.0102 69.4863 12.0729C69.1707 12.7814 69.169 12.8311 69.4588 13.1791C69.9373 13.7551 72.057 13.637 73.7617 12.9388C74.506 12.6343 75.18 12.4624 75.2572 12.5556C75.4715 12.8145 76.0924 15.0975 76.0924 15.6257C76.0924 15.982 75.9655 16.1146 75.535 16.2141C74.8816 16.3612 65.0462 16.2969 63.916 16.1374ZM82.8734 15.8515C81.5392 14.2377 82.9592 8.80182 85.6809 5.10814C87.2638 2.96194 90.7795 0.291633 92.3607 0.034753C93.0021 -0.0688278 93.1994 0.0181778 94.2592 0.86754C94.9092 1.38959 95.6381 2.12915 95.8782 2.51033C97.0752 4.40793 97.7081 7.48221 97.3736 9.79413C96.962 12.6509 95.7976 15.8205 95.079 16.0359C94.8715 16.0981 93.9128 16.1229 92.9507 16.0898L91.2014 16.0297L92.0743 14.6831C93.3091 12.7752 93.5835 12.1848 93.5852 11.4286C93.5852 10.8299 93.5149 10.7388 92.8821 10.5088C91.4655 9.99715 88.3014 10.7823 86.8899 11.9963C86.2777 12.5224 86.2382 13.2061 86.7184 14.8882C86.8968 15.5139 87.0048 16.0732 86.9568 16.1312C86.9088 16.1892 86.0685 16.2679 85.0892 16.3073C83.3759 16.3756 83.2953 16.3591 82.8734 15.8515ZM91.7605 7.74944C92.8787 7.58786 93.8391 7.40141 93.8956 7.33512C94.0911 7.09689 93.5629 5.249 93.0982 4.5488C92.3727 3.45706 92.2373 3.41149 91.174 3.89417C89.9632 4.44315 87.7954 6.98295 87.7611 7.8986C87.7508 8.13684 89.5121 8.07262 91.7605 7.74944ZM101.594 16.1913C100.912 16.1374 100.569 16.0131 100.5 15.7997C100.157 14.7184 102.076 4.43486 103.237 1.14099L103.592 0.132119L104.83 0.227412C105.76 0.299918 106.261 0.459429 106.842 0.871681C107.902 1.62161 109.267 3.50471 110.392 5.77105C111.596 8.19692 112.289 9.22236 112.466 8.84118C112.606 8.53873 112.922 3.01788 112.894 1.32122L112.879 0.285417L113.988 0.223271C115.71 0.125905 115.837 0.204624 115.966 1.4766C116.187 3.64558 115.563 9.67191 114.813 12.6074C114.012 15.7521 113.62 16.1768 111.603 16.0898L110.205 16.0297L109.703 14.2212C109.097 12.0439 108.228 9.87492 107.278 8.17206C105.913 5.72548 105.401 5.39609 105.081 6.75921C104.726 8.26942 104.391 11.0889 104.263 13.6473L104.132 16.2369L103.361 16.2534C102.937 16.2638 102.141 16.2348 101.594 16.1913ZM121.437 16.1333C120.099 15.8971 119.42 15.5636 118.814 14.8489C118.058 13.9581 117.767 13.0093 117.767 11.4556C117.767 8.87433 118.902 6.26203 121.287 3.34934C123.505 0.645879 125.637 -0.3485 128.074 0.185977C128.667 0.316489 129.427 0.592018 129.763 0.799179C130.545 1.27979 132.028 3.17117 132.498 4.28363C133.539 6.75092 133.625 10.1359 132.702 12.4707C131.879 14.5526 130.497 15.6796 128.228 16.1208C126.979 16.3632 122.778 16.3715 121.437 16.1333ZM127.111 13.7633C128.811 12.5597 129.6 10.6849 129.6 7.84681C129.6 4.96312 128.712 2.71335 127.381 2.23273C125.933 1.70861 124.086 3.29133 122.881 6.08594C121.191 10.0054 121.356 12.9761 123.323 14.0948C124.306 14.6541 126.072 14.4988 127.111 13.7633ZM18.6541 12.249C18.6798 9.89357 18.8856 8.44551 19.2423 8.13062C19.4858 7.91517 20.2919 7.84681 22.5745 7.85095C24.2312 7.85095 25.689 7.93175 25.8124 8.02704C26.1571 8.29014 26.3492 9.60561 26.3544 11.7311L26.3578 13.6473H22.4991H18.6404L18.6541 12.249ZM138.003 11.2712C138.122 7.9939 137.923 8.15755 141.776 8.15755C144.416 8.15755 144.891 8.20727 145.136 8.50144C145.357 8.76868 145.441 9.38602 145.51 11.2463L145.597 13.6473H141.757H137.918L138.003 11.2712Z" fill="white"/>
</svg>
